<?xml version="1.0" encoding="utf-8"?>
<svg version="1.1" xmlns="http://www.w3.org/2000/svg" viewBox="0 0 76 76" xml:space="preserve">
<style type="text/css">.outer,.inner{fill:#FFFFFF;}</style>
<path class="outer" d="M68.1,38.2c0-8.2-3.3-15.6-8.7-21l4.9-4.9C70.9,18.9,75,28.1,75,38.2s-4.1,19.3-10.7,25.9l-4.9-4.9
	C64.7,53.9,68.1,46.4,68.1,38.2z"/>
<path class="outer" id="path2" d="M8.6,38.2c0,8.2,3.3,15.6,8.7,21l-4.9,4.9C5.8,57.5,1.7,48.3,1.7,38.2S5.8,19,12.4,12.3l4.9,4.9
	C11.9,22.6,8.6,30,8.6,38.2z"/>
<path class="inner" d="M22.1,22c-3.4,3.5-5.8,8.1-6.5,13.2h6.5h0.5h12.7V22H22.1z"/>
<path class="inner" d="M22.6,41.2h-0.5h-6.5c0.7,5.1,3.1,9.7,6.5,13.2h13.2V41.2H22.6z"/>
<path class="inner" d="M54.5,22L54.5,22L54.5,22h-13v13.2H54h0.5H61C60.3,30.1,57.9,25.4,54.5,22z"/>
<path class="inner" d="M61,41.2h-6.5H54H41.5v13.2h13v0l0,0C57.9,50.9,60.3,46.3,61,41.2z"/>
</svg>
