<?xml version="1.0" encoding="utf-8"?>
<svg version="1.1" id="Layer_1" xmlns="http://www.w3.org/2000/svg" viewBox="0 0 100 100" xml:space="preserve">
<style type="text/css">* {fill:#FFFFFF;}</style>
<path d="M66.9,36.7c3.2,3.2,7.3,5,11.7,5l4.9-4.9L66.7,20.1L61.9,25C61.9,29.4,63.7,33.5,66.9,36.7z"/>
<path d="M37.5,66.1c3.2,3.2,7.3,5,11.7,5l25-25c-4-0.9-7.8-2.9-10.8-6s-5.1-6.8-6-10.8l-25,25
	C32.5,58.8,34.3,62.9,37.5,66.1z"/>
<path d="M33.9,69.7c-3-3-5-6.6-5.9-10.5l-3.1,19.6l19.6-3.1C40.5,74.6,36.9,72.6,33.9,69.7z"/>
</svg>
