<?xml version="1.0" encoding="utf-8"?>
<svg version="1.1" xmlns="http://www.w3.org/2000/svg" viewBox="0 0 100 100" xml:space="preserve">
<style type="text/css">
	.parameter{fill:#007ACC;}
	.invocation{fill:#C5C5C5;}
</style>
<path class="parameter" d="M50,34.2c-6.8,0-12.6,4.6-14.4,10.8H1.8v10h34.4c2.3,5.4,7.6,9.2,13.8,9.2c8.3,0,15-6.7,15-15
	S58.3,34.2,50,34.2z M50,54.2c-2.8,0-5-2.2-5-5c0-2.8,2.2-5,5-5s5,2.2,5,5C55,51.9,52.8,54.2,50,54.2z"/>
<path class="invocation" d="M50,5C30.4,5,13.8,17.5,7.6,35h10.8C24,23.2,36.1,15,50,15c19.3,0,35,15.7,35,35S69.3,85,50,85
	c-13.9,0-26-8.2-31.6-20H7.6C13.8,82.5,30.4,95,50,95c24.8,0,45-20.2,45-45S74.8,5,50,5z"/>
</svg>
