<?xml version="1.0" encoding="UTF-8"?>
<svg xmlns="http://www.w3.org/2000/svg" version="1.1" viewBox="0 0 76 76" xml:space="preserve">
<style type="text/css">*{fill:#ffffff;stroke-width:0.34524319;}</style>
   <path d="m 0,14.179026 h 76.207628 v 6.881837 h -6.927966 v 5.161379 h 6.927966 v 6.881837 
      h -6.927966 v 5.161378 h 6.927966 v 6.881838 h -6.927966 v 5.161378 h 6.927966 v 6.881837 
      h -6.927966 v 5.161378 H 62.351696 V 57.19051 H 48.495763 v 5.161378 H 41.567798 V 57.19051 
      H 27.711865 v 5.161378 H 20.783898 V 57.19051 H 6.9279662 v 5.161378 H 0 Z M 62.351696,50.308673 
      V 45.147295 H 48.495763 v 5.161378 z m -20.783898,0 V 45.147295 H 27.711865 v 5.161378 z m -20.7839,0 
      V 45.147295 H 6.9279662 v 5.161378 z M 27.711865,26.222242 H 41.567798 V 21.061036 H 27.711865 Z m 20.783725,0 
      H 62.351523 V 21.060863 H 48.49559 Z M 6.9279662,21.060863 v 5.161379 H 20.783898 v -5.161379 z m 0,12.043216 
      v 5.161378 H 20.783898 v -5.161378 z m 20.7838988,0 v 5.161378 h 13.855933 v -5.161378 z m 20.783898,0 v 5.161378 
      h 13.855933 v -5.161378 z" />
</svg>