<?xml version="1.0" encoding="utf-8"?>
<svg version="1.1" xmlns="http://www.w3.org/2000/svg" viewBox="0 0 76 76" xml:space="preserve">
<style type="text/css">
	.centre,.inner,.outer{fill:#FFFFFF;}
</style>
<circle class="centre" cx="38.3" cy="38.2" r="9.2"/>
<path class="inner" d="M54.3,38.2c0-4.4-1.8-8.4-4.7-11.3l4.9-4.9c4.1,4.1,6.7,9.9,6.7,16.2c0,6.3-2.6,12-6.7,16.2l-4.9-4.9
	C52.5,46.7,54.3,42.7,54.3,38.2z"/>
<path class="inner" d="M68.1,38.2c0-8.2-3.3-15.6-8.7-21l4.9-4.9c6.6,6.6,10.7,15.8,10.7,25.9s-4.1,19.3-10.7,25.9l-4.9-4.9
	C64.7,53.9,68.1,46.4,68.1,38.2z"/>
<path class="outer" d="M22.3,38.2c0,4.4,1.8,8.4,4.7,11.3l-4.9,4.9c-4.1-4.1-6.7-9.9-6.7-16.2c0-6.3,2.6-12,6.7-16.2l4.9,4.9
	C24.1,29.8,22.3,33.8,22.3,38.2z"/>
<path id="path2" class="outer" d="M8.6,38.2c0,8.2,3.3,15.6,8.7,21l-4.9,4.9C5.8,57.5,1.7,48.3,1.7,38.2S5.8,19,12.4,12.3l4.9,4.9
	C11.9,22.6,8.6,30,8.6,38.2z"/>
</svg>
